<svg xmlns="http://www.w3.org/2000/svg" viewBox="0 0 32 32" width="32" height="32">
  <rect width="32" height="32" rx="7" fill="#ece3cf"/>
  <g stroke="#4d6a2c" stroke-width="1.4" stroke-linecap="round" fill="none">
    <path d="M16 27 C16 20 15 12 18 5"/>
  </g>
  <g fill="#5f7d3a">
    <!-- leaf pairs along the stem -->
    <path d="M16.4 22.5 C13 22 10.5 23.2 9.2 25.4 C12 25.6 14.8 24.8 16.4 22.5 Z"/>
    <path d="M16.6 22.2 C19.6 20.8 21 18.4 21.2 15.8 C18.6 17 16.9 19.3 16.6 22.2 Z"/>
    <path d="M16.8 18 C13.6 17.2 11 18.2 9.4 20.2 C12.2 20.7 15 20.1 16.8 18 Z"/>
    <path d="M17 17.6 C19.8 15.9 20.9 13.3 20.8 10.7 C18.4 12.2 17 14.7 17 17.6 Z"/>
    <path d="M17.4 13.2 C14.4 12.2 11.8 12.9 10 14.7 C12.6 15.5 15.4 15.2 17.4 13.2 Z"/>
    <path d="M17.6 12.8 C20.2 10.9 21 8.2 20.6 5.7 C18.4 7.4 17.2 9.9 17.6 12.8 Z"/>
    <path d="M18 7.6 C19.9 5.6 20.2 3.4 19.6 1.2 C17.9 2.8 17.3 5 18 7.6 Z"/>
  </g>
</svg>
